<svg width="42" height="42" viewBox="0 0 42 42" fill="none" xmlns="http://www.w3.org/2000/svg">
<path d="M35.6921 39.5298L19.173 30.7833C18.7425 30.555 18.2175 30.5865 17.8106 30.8621L5.17911 39.6086C4.70661 39.9367 4.50186 40.5326 4.67511 41.0812C4.84311 41.6246 5.35236 42 5.92461 42H35.0752C35.6763 42 36.204 41.5905 36.3483 41.0025C36.4953 40.4171 36.2223 39.8107 35.6921 39.5298Z" fill="white"/>
<path d="M41.2203 37.0362L37.3353 19.5458C37.2408 19.1179 36.9389 18.7688 36.5321 18.6087C36.1226 18.4485 35.6632 18.5037 35.3062 18.7504L22.6721 27.4969C22.2941 27.7594 22.0814 28.1978 22.1103 28.6519C22.1366 29.1113 22.4017 29.5208 22.8059 29.7334L39.3224 38.4799C39.5167 38.5823 39.7267 38.6348 39.9367 38.6348C40.2176 38.6348 40.4984 38.5455 40.7321 38.3644C41.1389 38.0547 41.3305 37.5375 41.2203 37.0362Z" fill="white"/>
<path d="M32.0801 16.6713C31.9069 16.1227 31.4003 15.7499 30.8254 15.7499H18.8449C16.6661 19.6953 13.4426 23.4674 12.117 24.9427C11.3715 25.7722 10.3031 26.2499 9.18752 26.2499C8.07189 26.2499 7.00352 25.7722 6.25802 24.9427C5.74614 24.3731 4.95339 23.4622 4.04515 22.3334L0.868897 36.6292C0.753397 37.1568 0.971272 37.7002 1.41752 38.0021C1.63802 38.1517 1.89527 38.2252 2.1499 38.2252C2.4124 38.2252 2.67227 38.1491 2.89802 37.9916L31.5709 18.1387C32.046 17.8158 32.2481 17.2199 32.0801 16.6713Z" fill="white"/>
<path d="M9.18749 0C4.12125 0 0 4.12125 0 9.18749C0 13.902 7.371 22.2521 8.21099 23.1892C8.46037 23.4649 8.81474 23.625 9.18749 23.625C9.56024 23.625 9.91462 23.4649 10.164 23.1892C11.004 22.2521 18.375 13.902 18.375 9.18749C18.375 4.12125 14.2537 0 9.18749 0ZM9.18749 13.125C7.014 13.125 5.25 11.361 5.25 9.18749C5.25 7.014 7.014 5.25 9.18749 5.25C11.361 5.25 13.125 7.014 13.125 9.18749C13.125 11.361 11.361 13.125 9.18749 13.125Z" fill="white"/>
</svg>
